<svg width="203" height="30" viewBox="0 0 203 30" fill="none" xmlns="http://www.w3.org/2000/svg">
<path d="M19.088 15.524C19.208 15.86 19.292 16.244 19.34 16.676C19.412 17.084 19.448 17.504 19.448 17.936C19.448 18.368 19.412 18.8 19.34 19.232C19.292 19.64 19.22 20 19.124 20.312C18.74 21.656 17.972 22.784 16.82 23.696C15.668 24.584 14.348 25.232 12.86 25.64C11.396 26.048 9.872 26.192 8.288 26.072C6.728 25.952 5.336 25.556 4.112 24.884C3.344 24.452 2.684 23.924 2.132 23.3C1.58 22.676 1.112 21.98 0.728 21.212C0.584 20.948 0.488 20.648 0.44 20.312C0.416 19.952 0.452 19.616 0.548 19.304C0.644 18.968 0.8 18.68 1.016 18.44C1.232 18.176 1.532 17.996 1.916 17.9C2.156 17.852 2.42 17.828 2.708 17.828C3.02 17.828 3.32 17.876 3.608 17.972C3.896 18.044 4.16 18.176 4.4 18.368C4.64 18.536 4.832 18.776 4.976 19.088C5.24 19.592 5.612 20.06 6.092 20.492C6.596 20.9 7.124 21.236 7.676 21.5C8.468 21.764 9.26 21.872 10.052 21.824C10.868 21.776 11.6 21.596 12.248 21.284C12.92 20.972 13.46 20.552 13.868 20.024C14.276 19.472 14.48 18.848 14.48 18.152C14.48 17.576 14.396 17.108 14.228 16.748C14.06 16.364 13.82 16.052 13.508 15.812C13.22 15.548 12.86 15.332 12.428 15.164C12.02 14.996 11.564 14.852 11.06 14.732C10.484 14.612 9.896 14.528 9.296 14.48C8.72 14.432 8.132 14.372 7.532 14.3C6.932 14.228 6.344 14.132 5.768 14.012C5.192 13.892 4.628 13.712 4.076 13.472C2.972 13.016 2.132 12.32 1.556 11.384C0.98 10.448 0.632 9.44 0.512 8.36C0.416 7.28 0.548 6.212 0.908 5.156C1.268 4.076 1.844 3.152 2.636 2.384C3.404 1.688 4.316 1.196 5.372 0.907999C6.452 0.595999 7.64 0.415999 8.936 0.368C9.656 0.343998 10.376 0.367998 11.096 0.439999C11.84 0.511999 12.548 0.631999 13.22 0.799998C13.916 0.967999 14.552 1.184 15.128 1.448C15.728 1.712 16.244 2.024 16.676 2.384C16.988 2.624 17.3 2.948 17.612 3.356C17.924 3.74 18.164 4.16 18.332 4.616C18.5 5.048 18.548 5.468 18.476 5.876C18.428 6.284 18.176 6.632 17.72 6.92C17.336 7.16 16.964 7.268 16.604 7.244C16.268 7.196 15.944 7.088 15.632 6.92C15.32 6.728 15.02 6.512 14.732 6.272C14.444 6.032 14.18 5.816 13.94 5.624C13.292 5.144 12.488 4.82 11.528 4.652C10.568 4.484 9.668 4.448 8.828 4.544C8.3 4.616 7.808 4.736 7.352 4.904C6.896 5.072 6.5 5.3 6.164 5.588C5.852 5.876 5.6 6.236 5.408 6.668C5.24 7.076 5.18 7.544 5.228 8.072C5.252 8.456 5.36 8.78 5.552 9.044C5.768 9.308 6.02 9.524 6.308 9.692C6.62 9.86 6.956 9.992 7.316 10.088C7.676 10.184 8.036 10.256 8.396 10.304C9.476 10.448 10.556 10.556 11.636 10.628C12.716 10.7 13.772 10.94 14.804 11.348C15.86 11.756 16.76 12.308 17.504 13.004C18.248 13.7 18.776 14.54 19.088 15.524ZM28.7143 1.376C30.3223 0.775999 31.7743 0.511998 33.0703 0.583999C34.3903 0.655999 35.5663 0.991999 36.5983 1.592C37.6303 2.168 38.5063 2.948 39.2263 3.932C39.9703 4.916 40.5703 6.02 41.0263 7.244C41.3863 8.156 41.6623 9.116 41.8543 10.124C42.0463 11.132 42.1543 12.14 42.1783 13.148C42.2263 14.132 42.1903 15.104 42.0703 16.064C41.9743 17.024 41.8063 17.912 41.5663 18.728C41.4223 19.28 41.2543 19.784 41.0623 20.24C40.8703 20.696 40.6423 21.152 40.3783 21.608C39.7783 22.64 38.9983 23.48 38.0383 24.128C37.1023 24.776 36.0703 25.232 34.9423 25.496C34.1743 25.688 33.3823 25.784 32.5663 25.784C31.7503 25.76 30.9463 25.652 30.1543 25.46C29.3623 25.244 28.5943 24.944 27.8503 24.56C27.1303 24.152 26.4703 23.648 25.8703 23.048C25.1263 22.328 24.5143 21.5 24.0343 20.564C23.5543 19.604 23.1823 18.608 22.9183 17.576C22.6543 16.52 22.4863 15.464 22.4143 14.408C22.3423 13.352 22.3423 12.344 22.4143 11.384C22.4863 10.496 22.6543 9.548 22.9183 8.54C23.2063 7.532 23.6143 6.56 24.1423 5.624C24.6703 4.688 25.3063 3.848 26.0503 3.104C26.8183 2.336 27.7063 1.76 28.7143 1.376ZM37.1383 16.784C37.4263 15.656 37.5463 14.384 37.4983 12.968C37.4503 11.552 37.2223 10.22 36.8143 8.972C36.5503 8.204 36.2143 7.532 35.8063 6.956C35.4223 6.356 34.9543 5.9 34.4023 5.588C33.8743 5.276 33.2503 5.12 32.5303 5.12C31.8103 5.12 31.0063 5.336 30.1183 5.768C29.5903 6.032 29.1343 6.392 28.7503 6.848C28.3903 7.304 28.0903 7.82 27.8503 8.396C27.6343 8.972 27.4543 9.572 27.3103 10.196C27.1903 10.82 27.1183 11.42 27.0943 11.996C27.0463 12.62 27.0343 13.28 27.0583 13.976C27.0823 14.648 27.1543 15.332 27.2743 16.028C27.4183 16.7 27.6103 17.348 27.8503 17.972C28.0903 18.572 28.4143 19.112 28.8223 19.592C29.4463 20.312 30.1663 20.816 30.9823 21.104C31.8223 21.368 32.6503 21.404 33.4663 21.212C34.7863 20.924 35.7943 20.048 36.4903 18.584C36.7783 18.056 36.9943 17.456 37.1383 16.784ZM62.4587 23.264C62.5067 23.384 62.5307 23.564 62.5307 23.804C62.5307 24.02 62.5307 24.2 62.5307 24.344C62.5307 24.536 62.4947 24.716 62.4227 24.884C62.3507 25.052 62.2547 25.208 62.1347 25.352C61.9187 25.64 61.6067 25.856 61.1987 26C60.6227 26.192 60.0827 26.288 59.5787 26.288C59.3147 26.312 59.0387 26.324 58.7507 26.324C58.4627 26.324 58.1747 26.348 57.8867 26.396H57.7427C55.8947 26.42 53.9867 26.42 52.0187 26.396C51.5387 26.372 50.9987 26.372 50.3987 26.396C49.7987 26.444 49.2107 26.432 48.6347 26.36C48.0587 26.312 47.5307 26.18 47.0507 25.964C46.5947 25.724 46.2707 25.352 46.0787 24.848C46.0307 24.728 45.9947 24.62 45.9707 24.524C45.9467 24.404 45.9347 24.284 45.9347 24.164C45.8387 23.348 45.8027 22.544 45.8267 21.752C45.8507 20.96 45.8627 20.18 45.8627 19.412L45.9347 14.192V9.368C45.9347 8.504 45.9347 7.736 45.9347 7.064C45.9587 6.392 45.9827 5.648 46.0067 4.832V4.652C46.0307 4.412 46.0427 4.172 46.0427 3.932C46.0667 3.692 46.0787 3.452 46.0787 3.212C46.1267 2.66 46.2587 2.192 46.4747 1.808C46.6187 1.448 46.8707 1.16 47.2307 0.943999C47.5427 0.727998 47.9147 0.619998 48.3467 0.619998C48.5147 0.619998 48.6707 0.631998 48.8147 0.655998C48.9827 0.655998 49.1387 0.667999 49.2827 0.692C49.4267 0.715999 49.5587 0.763999 49.6787 0.835998C49.8227 0.907998 49.9667 1.004 50.1107 1.124C50.2547 1.292 50.3867 1.496 50.5067 1.736C50.6027 2 50.6627 2.264 50.6867 2.528C50.7107 2.696 50.7347 2.852 50.7587 2.996C50.7827 3.14 50.7947 3.284 50.7947 3.428C50.7467 3.572 50.7227 3.716 50.7227 3.86C50.7227 4.004 50.7227 4.136 50.7227 4.256V4.904L50.5787 21.86L57.7067 21.932H59.3987C59.5427 21.932 59.6987 21.944 59.8667 21.968C60.0347 21.968 60.2027 21.98 60.3707 22.004C60.5627 22.028 60.7307 22.052 60.8747 22.076C61.0187 22.1 61.1627 22.136 61.3067 22.184C61.5707 22.256 61.7867 22.376 61.9547 22.544C62.2187 22.784 62.3867 23.024 62.4587 23.264ZM87.3328 23.408C87.3088 23.696 87.2728 23.996 87.2248 24.308C87.1768 24.62 87.0928 24.908 86.9728 25.172C86.8528 25.46 86.6968 25.676 86.5048 25.82C86.2408 26.06 85.9288 26.192 85.5688 26.216C85.2328 26.336 84.9088 26.372 84.5968 26.324C84.2848 26.276 83.9968 26.192 83.7328 26.072C83.3968 25.856 83.1448 25.604 82.9767 25.316C82.8328 25.004 82.7248 24.68 82.6528 24.344C82.5808 24.008 82.5448 23.66 82.5448 23.3C82.5448 22.94 82.5448 22.604 82.5448 22.292V19.484L82.5088 13.976C82.5088 13.592 82.5088 13.292 82.5088 13.076C82.5088 12.86 82.5088 12.668 82.5088 12.5C82.5088 12.308 82.4968 12.104 82.4727 11.888C82.4727 11.648 82.4727 11.312 82.4727 10.88C82.4727 10.808 82.4727 10.688 82.4727 10.52C82.4968 10.328 82.4848 9.836 82.4368 9.044C81.5008 10.604 80.7208 11.864 80.0968 12.824C79.4968 13.76 78.9808 14.492 78.5488 15.02C78.1408 15.524 77.7808 15.872 77.4688 16.064C77.1568 16.232 76.8328 16.328 76.4968 16.352C76.3048 16.376 76.1128 16.34 75.9208 16.244C75.7288 16.148 75.5368 16.028 75.3448 15.884C75.1768 15.74 75.0088 15.596 74.8408 15.452C74.6968 15.284 74.5768 15.128 74.4808 14.984C73.9048 14.264 73.2568 13.4 72.5368 12.392C71.8168 11.384 71.0728 10.16 70.3048 8.72C70.3048 8.744 70.2928 9.14 70.2688 9.908C70.2688 10.676 70.2688 11.636 70.2688 12.788C70.2688 13.916 70.2568 15.14 70.2328 16.46C70.2328 17.756 70.2208 18.968 70.1968 20.096C70.1968 21.224 70.1848 22.172 70.1608 22.94C70.1368 23.684 70.1128 24.056 70.0888 24.056C70.0888 24.464 69.9928 24.848 69.8008 25.208C69.6088 25.544 69.3448 25.82 69.0088 26.036C68.6968 26.252 68.3248 26.372 67.8928 26.396C67.4608 26.42 66.9928 26.3 66.4888 26.036C66.1768 25.844 65.9368 25.568 65.7688 25.208C65.6248 24.848 65.5288 24.512 65.4808 24.2C65.4568 23.864 65.4328 23.54 65.4088 23.228C65.4088 22.916 65.4088 22.592 65.4088 22.256L65.4448 19.448L65.4808 13.904V9.08C65.4808 6.992 65.5528 4.94 65.6968 2.924C65.6968 2.66 65.7208 2.42 65.7688 2.204C65.8408 1.964 65.9248 1.736 66.0208 1.52C66.2128 1.136 66.4648 0.847998 66.7768 0.655998C67.1368 0.439998 67.5208 0.331998 67.9288 0.331998C68.0968 0.331998 68.2528 0.343998 68.3968 0.368C68.5648 0.368 68.7208 0.379999 68.8648 0.403999C69.3448 0.499999 69.7528 0.787999 70.0888 1.268C70.4488 1.724 70.7848 2.12 71.0968 2.456C71.2888 2.672 71.4928 2.936 71.7088 3.248C71.9248 3.56 72.1408 3.884 72.3568 4.22C72.5728 4.556 72.7768 4.88 72.9688 5.192C73.1608 5.504 73.3288 5.78 73.4727 6.02C74.0968 7.028 74.6488 7.952 75.1288 8.792C75.6328 9.632 76.1008 10.352 76.5328 10.952C76.6048 10.88 76.6888 10.784 76.7848 10.664C76.8808 10.52 76.9768 10.376 77.0728 10.232C77.1928 10.064 77.2888 9.908 77.3608 9.764C77.4568 9.62 77.5288 9.5 77.5768 9.404C77.8168 9.02 78.0568 8.648 78.2968 8.288C78.5368 7.904 78.7888 7.508 79.0528 7.1C79.3408 6.668 79.6288 6.2 79.9168 5.696C80.2288 5.192 80.5888 4.616 80.9968 3.968C81.1648 3.68 81.3808 3.332 81.6448 2.924C81.9088 2.516 82.2088 2.12 82.5448 1.736C82.8808 1.352 83.2288 1.028 83.5888 0.763999C83.9728 0.475998 84.3568 0.331998 84.7408 0.331998C84.9328 0.331998 85.1008 0.343998 85.2448 0.368C85.3888 0.368 85.5328 0.379999 85.6768 0.403999C85.9648 0.427999 86.2408 0.559999 86.5048 0.799998C86.6968 0.991999 86.8408 1.196 86.9368 1.412C87.0328 1.724 87.0928 1.988 87.1168 2.204C87.1408 2.372 87.1528 2.528 87.1528 2.672C87.1768 2.816 87.1888 2.96 87.1888 3.104C87.1888 4.448 87.2008 5.78 87.2248 7.1C87.2488 8.42 87.2608 9.752 87.2608 11.096C87.2608 12.728 87.2608 14.408 87.2608 16.136C87.2848 17.864 87.2968 19.544 87.2968 21.176C87.2968 21.512 87.3088 21.872 87.3328 22.256C87.3568 22.64 87.3568 23.024 87.3328 23.408ZM91.3802 22.184L91.4162 19.34L91.4522 14.048C91.4762 13.28 91.4882 12.488 91.4882 11.672C91.4882 10.856 91.4882 10.016 91.4882 9.152C91.4882 8.288 91.4882 7.52 91.4882 6.848C91.4882 6.176 91.5122 5.42 91.5602 4.58V4.436C91.5842 4.196 91.5962 3.956 91.5962 3.716C91.6202 3.452 91.6322 3.188 91.6322 2.924C91.6562 2.492 91.7882 2.024 92.0282 1.52C92.1962 1.184 92.4482 0.895999 92.7842 0.655998C93.1682 0.463999 93.5402 0.368 93.9002 0.368C94.0922 0.368 94.2602 0.379999 94.4042 0.403999C94.5722 0.403999 94.7282 0.415999 94.8722 0.439999C95.1842 0.487999 95.4602 0.632 95.7002 0.872C95.8442 0.991999 95.9762 1.184 96.0962 1.448C96.1442 1.592 96.1802 1.736 96.2042 1.88C96.2522 2 96.2882 2.132 96.3122 2.276C96.3362 2.444 96.3482 2.6 96.3482 2.744C96.3722 2.888 96.3842 3.032 96.3842 3.176C96.3842 3.344 96.3722 3.5 96.3482 3.644C96.3482 3.764 96.3482 3.896 96.3482 4.04V4.652L96.1322 23.336V23.696C96.1322 23.768 96.1202 23.864 96.0962 23.984C96.0962 24.08 96.0842 24.2 96.0602 24.344C96.0122 24.464 95.9642 24.596 95.9162 24.74C95.8922 24.86 95.8562 24.992 95.8082 25.136C95.7362 25.256 95.6522 25.376 95.5562 25.496C95.4842 25.592 95.3882 25.688 95.2682 25.784C95.0762 25.976 94.7642 26.108 94.3322 26.18C93.6842 26.324 93.0722 26.264 92.4962 26C92.2082 25.808 92.0042 25.568 91.8842 25.28C91.8122 25.208 91.7762 25.136 91.7762 25.064C91.7522 25.016 91.7282 24.98 91.7042 24.956C91.6802 24.932 91.6562 24.896 91.6322 24.848C91.5842 24.728 91.5482 24.608 91.5242 24.488C91.5002 24.344 91.4882 24.2 91.4882 24.056C91.4642 23.936 91.4402 23.816 91.4162 23.696C91.4162 23.576 91.4042 23.456 91.3802 23.336C91.3562 23.144 91.3562 22.94 91.3802 22.724V22.184ZM119.938 23.264C119.914 23.672 119.854 24.104 119.758 24.56C119.686 25.016 119.458 25.388 119.074 25.676C118.786 25.916 118.462 26.06 118.102 26.108C117.742 26.156 117.382 26.132 117.022 26.036C116.686 25.964 116.362 25.844 116.05 25.676C115.738 25.484 115.486 25.256 115.294 24.992C114.478 23.984 113.722 22.952 113.026 21.896C112.354 20.816 111.67 19.736 110.974 18.656L107.95 14.084C107.542 13.436 107.11 12.716 106.654 11.924C106.198 11.108 105.73 10.352 105.25 9.656L105.142 23.408V23.732C105.142 24.116 105.07 24.5 104.926 24.884C104.806 25.244 104.59 25.556 104.278 25.82C104.038 26.012 103.726 26.144 103.342 26.216C102.742 26.336 102.238 26.3 101.83 26.108C101.446 25.916 101.134 25.652 100.894 25.316C100.678 24.98 100.522 24.596 100.426 24.164C100.354 23.708 100.342 23.264 100.39 22.832V22.22L100.462 19.412L100.498 14.192C100.522 13.424 100.534 12.644 100.534 11.852C100.534 11.036 100.534 10.208 100.534 9.368C100.51 8.336 100.51 7.244 100.534 6.092C100.582 4.94 100.63 3.86 100.678 2.852C100.726 2.3 100.858 1.832 101.074 1.448C101.17 1.112 101.422 0.823999 101.83 0.583999C102.094 0.415998 102.43 0.307998 102.838 0.259999C103.27 0.211999 103.642 0.223999 103.954 0.295998C104.074 0.343999 104.194 0.403999 104.314 0.475998C104.434 0.523999 104.554 0.583999 104.674 0.655998C104.794 0.751998 104.902 0.847998 104.998 0.943999C105.118 1.04 105.226 1.148 105.322 1.268C105.442 1.388 105.55 1.52 105.646 1.664C105.742 1.784 105.838 1.904 105.934 2.024C106.006 2.168 106.078 2.3 106.15 2.42C106.222 2.54 106.306 2.66 106.402 2.78L106.798 3.356L115.114 16.46V14.084C115.114 13.316 115.102 12.536 115.078 11.744C115.078 10.928 115.066 10.088 115.042 9.224C115.042 8.216 115.042 7.136 115.042 5.984C115.066 4.832 115.102 3.752 115.15 2.744C115.15 2.336 115.27 1.868 115.51 1.34C115.63 1.028 115.834 0.775999 116.122 0.583999C116.41 0.391999 116.734 0.259999 117.094 0.188C117.454 0.115999 117.814 0.115999 118.174 0.188C118.534 0.259999 118.846 0.403998 119.11 0.619998C119.182 0.691999 119.254 0.775999 119.326 0.872C119.398 0.968 119.458 1.076 119.506 1.196C119.626 1.508 119.698 1.784 119.722 2.024C119.794 2.36 119.83 2.66 119.83 2.924C119.83 5.924 119.83 8.984 119.83 12.104C119.854 15.224 119.878 18.284 119.902 21.284C119.902 21.62 119.914 21.956 119.938 22.292C119.962 22.604 119.962 22.928 119.938 23.264ZM136.174 25.856C136.582 25.784 136.99 25.808 137.398 25.928C137.83 26.048 138.214 26.24 138.55 26.504C138.886 26.768 139.054 27.14 139.054 27.62C139.054 27.86 139.006 28.112 138.91 28.376C138.838 28.64 138.73 28.832 138.586 28.952C138.394 29.144 138.142 29.276 137.83 29.348C137.542 29.444 137.254 29.504 136.966 29.528C136.678 29.576 136.426 29.6 136.21 29.6C136.018 29.6 135.91 29.6 135.886 29.6L127.534 29.636C126.982 29.66 126.406 29.66 125.806 29.636C125.23 29.612 124.738 29.432 124.33 29.096C123.778 28.688 123.502 28.244 123.502 27.764C123.502 27.428 123.61 27.092 123.826 26.756C124.066 26.444 124.378 26.228 124.762 26.108C125.266 25.94 125.782 25.868 126.31 25.892C126.838 25.892 127.378 25.88 127.93 25.856H136.174ZM160.592 15.524C160.712 15.86 160.796 16.244 160.844 16.676C160.916 17.084 160.952 17.504 160.952 17.936C160.952 18.368 160.916 18.8 160.844 19.232C160.796 19.64 160.724 20 160.628 20.312C160.244 21.656 159.476 22.784 158.324 23.696C157.172 24.584 155.852 25.232 154.364 25.64C152.9 26.048 151.376 26.192 149.792 26.072C148.232 25.952 146.84 25.556 145.616 24.884C144.848 24.452 144.188 23.924 143.636 23.3C143.084 22.676 142.616 21.98 142.232 21.212C142.088 20.948 141.992 20.648 141.944 20.312C141.92 19.952 141.956 19.616 142.052 19.304C142.148 18.968 142.304 18.68 142.52 18.44C142.736 18.176 143.036 17.996 143.42 17.9C143.66 17.852 143.924 17.828 144.212 17.828C144.524 17.828 144.824 17.876 145.112 17.972C145.4 18.044 145.664 18.176 145.904 18.368C146.144 18.536 146.336 18.776 146.48 19.088C146.744 19.592 147.116 20.06 147.596 20.492C148.1 20.9 148.628 21.236 149.18 21.5C149.972 21.764 150.764 21.872 151.556 21.824C152.372 21.776 153.104 21.596 153.752 21.284C154.424 20.972 154.964 20.552 155.372 20.024C155.78 19.472 155.984 18.848 155.984 18.152C155.984 17.576 155.9 17.108 155.732 16.748C155.564 16.364 155.324 16.052 155.012 15.812C154.724 15.548 154.364 15.332 153.932 15.164C153.524 14.996 153.068 14.852 152.564 14.732C151.988 14.612 151.4 14.528 150.8 14.48C150.224 14.432 149.636 14.372 149.036 14.3C148.436 14.228 147.848 14.132 147.272 14.012C146.696 13.892 146.132 13.712 145.58 13.472C144.476 13.016 143.636 12.32 143.06 11.384C142.484 10.448 142.136 9.44 142.016 8.36C141.92 7.28 142.052 6.212 142.412 5.156C142.772 4.076 143.348 3.152 144.14 2.384C144.908 1.688 145.82 1.196 146.876 0.907999C147.956 0.595999 149.144 0.415999 150.44 0.368C151.16 0.343998 151.88 0.367998 152.6 0.439999C153.344 0.511999 154.052 0.631999 154.724 0.799998C155.42 0.967999 156.056 1.184 156.632 1.448C157.232 1.712 157.748 2.024 158.18 2.384C158.492 2.624 158.804 2.948 159.116 3.356C159.428 3.74 159.668 4.16 159.836 4.616C160.004 5.048 160.052 5.468 159.98 5.876C159.932 6.284 159.68 6.632 159.224 6.92C158.84 7.16 158.468 7.268 158.108 7.244C157.772 7.196 157.448 7.088 157.136 6.92C156.824 6.728 156.524 6.512 156.236 6.272C155.948 6.032 155.684 5.816 155.444 5.624C154.796 5.144 153.992 4.82 153.032 4.652C152.072 4.484 151.172 4.448 150.332 4.544C149.804 4.616 149.312 4.736 148.856 4.904C148.4 5.072 148.004 5.3 147.668 5.588C147.356 5.876 147.104 6.236 146.912 6.668C146.744 7.076 146.684 7.544 146.732 8.072C146.756 8.456 146.864 8.78 147.056 9.044C147.272 9.308 147.524 9.524 147.812 9.692C148.124 9.86 148.46 9.992 148.82 10.088C149.18 10.184 149.54 10.256 149.9 10.304C150.98 10.448 152.06 10.556 153.14 10.628C154.22 10.7 155.276 10.94 156.308 11.348C157.364 11.756 158.264 12.308 159.008 13.004C159.752 13.7 160.28 14.54 160.592 15.524ZM168.778 4.832L168.706 10.484H170.146C171.13 10.46 172.006 10.448 172.774 10.448C173.542 10.448 174.394 10.46 175.33 10.484H175.51C175.798 10.484 176.074 10.496 176.338 10.52C176.626 10.52 176.902 10.52 177.166 10.52C177.454 10.544 177.73 10.592 177.994 10.664C178.258 10.712 178.522 10.772 178.786 10.844C179.194 10.988 179.53 11.204 179.794 11.492C180.034 11.804 180.154 12.152 180.154 12.536C180.154 12.656 180.154 12.8 180.154 12.968C180.154 13.112 180.13 13.244 180.082 13.364C180.034 13.628 179.878 13.868 179.614 14.084C179.494 14.252 179.266 14.372 178.93 14.444C178.618 14.54 178.306 14.6 177.994 14.624C177.658 14.696 177.322 14.732 176.986 14.732H175.294L168.634 14.768L168.562 21.824L175.726 21.896H177.418C177.61 21.896 177.79 21.896 177.958 21.896C178.126 21.896 178.282 21.908 178.426 21.932C178.618 21.98 178.786 22.016 178.93 22.04C179.098 22.04 179.254 22.064 179.398 22.112C179.686 22.208 179.926 22.34 180.118 22.508C180.358 22.748 180.514 23 180.586 23.264C180.61 23.384 180.622 23.516 180.622 23.66C180.646 23.78 180.646 23.912 180.622 24.056C180.622 24.44 180.502 24.788 180.262 25.1C179.974 25.436 179.638 25.652 179.254 25.748C178.75 25.964 178.198 26.072 177.598 26.072C177.334 26.096 177.058 26.108 176.77 26.108C176.482 26.108 176.206 26.12 175.942 26.144H175.726C173.854 26.192 171.91 26.192 169.894 26.144C169.414 26.144 169.03 26.132 168.742 26.108C168.454 26.108 168.19 26.108 167.95 26.108C167.734 26.108 167.506 26.108 167.266 26.108C167.026 26.108 166.714 26.108 166.33 26.108C165.778 26.156 165.322 26.06 164.962 25.82C164.698 25.652 164.494 25.424 164.35 25.136C164.278 25.064 164.242 24.992 164.242 24.92C164.218 24.872 164.194 24.836 164.17 24.812C164.146 24.788 164.122 24.752 164.098 24.704C164.05 24.584 164.014 24.464 163.99 24.344C163.966 24.2 163.954 24.068 163.954 23.948C163.93 23.828 163.906 23.708 163.882 23.588C163.882 23.468 163.87 23.348 163.846 23.228V22.652C163.846 22.556 163.846 22.46 163.846 22.364C163.87 22.268 163.882 22.172 163.882 22.076V19.268L163.954 14.084V9.296C163.954 8.432 163.954 7.664 163.954 6.992C163.978 6.32 164.002 5.588 164.026 4.796V4.616C164.05 4.352 164.062 4.112 164.062 3.896C164.086 3.656 164.098 3.416 164.098 3.176C164.122 2.696 164.254 2.228 164.494 1.772C164.59 1.58 164.686 1.412 164.782 1.268C164.902 1.124 165.058 1.004 165.25 0.907999C165.61 0.691999 165.982 0.583999 166.366 0.583999C166.558 0.583999 166.702 0.595999 166.798 0.619998V0.583999C167.23 0.583999 167.578 0.583999 167.842 0.583999C168.106 0.583999 168.358 0.583999 168.598 0.583999C168.862 0.583999 169.138 0.583999 169.426 0.583999C169.714 0.559999 170.11 0.547999 170.614 0.547999C171.574 0.524 172.486 0.512 173.35 0.512C174.214 0.512 175.102 0.524 176.014 0.547999H176.158C176.422 0.571999 176.698 0.583999 176.986 0.583999C177.274 0.583999 177.55 0.595999 177.814 0.619998C178.078 0.619998 178.342 0.655999 178.606 0.727999C178.87 0.775999 179.134 0.847998 179.398 0.943999C179.806 1.064 180.142 1.268 180.406 1.556C180.622 1.892 180.73 2.228 180.73 2.564C180.73 2.708 180.73 2.852 180.73 2.996C180.73 3.116 180.706 3.236 180.658 3.356C180.634 3.596 180.49 3.848 180.226 4.112C180.13 4.16 180.022 4.22 179.902 4.292C179.806 4.364 179.686 4.424 179.542 4.472C179.398 4.52 179.242 4.556 179.074 4.58C178.93 4.58 178.786 4.592 178.642 4.616C178.45 4.664 178.27 4.688 178.102 4.688C177.958 4.688 177.79 4.688 177.598 4.688H175.978L168.778 4.724V4.832ZM189.273 1.376C190.881 0.775999 192.333 0.511998 193.629 0.583999C194.949 0.655999 196.125 0.991999 197.157 1.592C198.189 2.168 199.065 2.948 199.785 3.932C200.529 4.916 201.129 6.02 201.585 7.244C201.945 8.156 202.221 9.116 202.413 10.124C202.605 11.132 202.713 12.14 202.737 13.148C202.785 14.132 202.749 15.104 202.629 16.064C202.533 17.024 202.365 17.912 202.125 18.728C201.981 19.28 201.813 19.784 201.621 20.24C201.429 20.696 201.201 21.152 200.937 21.608C200.337 22.64 199.557 23.48 198.597 24.128C197.661 24.776 196.629 25.232 195.501 25.496C194.733 25.688 193.941 25.784 193.125 25.784C192.309 25.76 191.505 25.652 190.713 25.46C189.921 25.244 189.153 24.944 188.409 24.56C187.689 24.152 187.029 23.648 186.429 23.048C185.685 22.328 185.073 21.5 184.593 20.564C184.113 19.604 183.741 18.608 183.477 17.576C183.213 16.52 183.045 15.464 182.973 14.408C182.901 13.352 182.901 12.344 182.973 11.384C183.045 10.496 183.213 9.548 183.477 8.54C183.765 7.532 184.173 6.56 184.701 5.624C185.229 4.688 185.865 3.848 186.609 3.104C187.377 2.336 188.265 1.76 189.273 1.376ZM197.697 16.784C197.985 15.656 198.105 14.384 198.057 12.968C198.009 11.552 197.781 10.22 197.373 8.972C197.109 8.204 196.773 7.532 196.365 6.956C195.981 6.356 195.513 5.9 194.961 5.588C194.433 5.276 193.809 5.12 193.089 5.12C192.369 5.12 191.565 5.336 190.677 5.768C190.149 6.032 189.693 6.392 189.309 6.848C188.949 7.304 188.649 7.82 188.409 8.396C188.193 8.972 188.013 9.572 187.869 10.196C187.749 10.82 187.677 11.42 187.653 11.996C187.605 12.62 187.593 13.28 187.617 13.976C187.641 14.648 187.713 15.332 187.833 16.028C187.977 16.7 188.169 17.348 188.409 17.972C188.649 18.572 188.973 19.112 189.381 19.592C190.005 20.312 190.725 20.816 191.541 21.104C192.381 21.368 193.209 21.404 194.025 21.212C195.345 20.924 196.353 20.048 197.049 18.584C197.337 18.056 197.553 17.456 197.697 16.784Z" fill="black"/>
</svg>
